<svg xmlns:svg="http://www.w3.org/2000/svg" xmlns="http://www.w3.org/2000/svg" version="1.0" width="18" height="20" style=""><rect id="backgroundrect" width="100%" height="100%" x="0" y="0" fill="none" stroke="none"/>
  <defs id="defs3"/>
  
<g class="currentLayer" style=""><title>Layer 1</title><g id="layer1" class="selected" fill="#d3ba00" fill-opacity="1">
    <g style="" id="g2883" fill="#d3ba00" fill-opacity="1">
      <path d="M17.311984897425162,3.145396352138391 C17.31965489742518,3.5147763521383695 17.162434897425186,3.884046352138398 16.88077489742517,4.125246352138333 C16.52052489742516,4.454156352138398 15.971324897425177,4.52152635213838 15.522474897425184,4.354106352138388 C15.077624897425181,4.18233635213835 14.748774897425164,3.7422263521383456 14.723444897425168,3.263996352138406 C14.689664897425189,2.8902863521383324 14.808844897425189,2.4981863521384184 15.079464897425169,2.2320663521384176 C15.334564897425167,1.9601963521383823 15.714434897425178,1.8273663521383696 16.083464897425188,1.8498463521383428 C16.46330489742516,1.857916352138318 16.830044897425182,2.0494063521383623 17.056884897425164,2.3535863521383362 C17.231614897425175,2.5779163521383452 17.314374897425182,2.8629363521383766 17.311984897425162,3.145396352138391 z" style="" id="path2885" fill="#d3ba00" fill-opacity="1"/>
    </g>
    <g style="" id="g2887" fill="#d3ba00" fill-opacity="1">
      <path d="M17.311984897425162,8.988416352138415 C17.319714897425172,9.358086352138343 17.162754897425174,9.72785635213836 16.88077489742517,9.969246352138384 C16.52052489742516,10.298156352138335 15.971324897425177,10.365526352138318 15.522474897425184,10.198116352138413 C15.077364897425184,10.026276352138325 14.748544897425177,9.585766352138421 14.723444897425168,9.107286352138317 C14.688504897425162,8.733296352138382 14.81553489742518,8.346476352138325 15.078994897425162,8.076396352138318 C15.328624897425186,7.797936352138322 15.712594897425163,7.67129635213837 16.080444897425167,7.692896352138405 C16.564294897425185,7.706216352138426 17.003584897425185,8.03590635213834 17.203614897425183,8.468046352138344 C17.277644897425176,8.630796352138418 17.31242489742519,8.809966352138417 17.311984897425162,8.988416352138415 z" style="" id="path2889" fill="#d3ba00" fill-opacity="1"/>
    </g>
    <g style="" id="g2891" fill="#d3ba00" fill-opacity="1">
      <path d="M13.030994897425188,7.211376352138359 C13.07597489742517,10.035976352138391 11.815594897425171,12.78154635213832 9.816684897425176,14.74788635213838 C7.327264897425181,17.23616635213841 4.069904897425175,18.81873635213833 0.7496148974251753,19.876006352138347 C0.3078948974251716,20.115216352138418 -0.35830510257483184,19.799826352138325 0.3374948974251879,19.474836352138368 C1.675454897425169,18.86628635213833 3.0651848974251834,18.34389635213836 4.2976348974251835,17.524196352138347 C7.019984897425161,15.840896352138316 9.317224897425177,13.190136352138325 9.874784897425172,9.961936352138423 C10.199704897425164,7.996916352138328 10.109234897425182,5.95134635213833 9.616834897425178,4.021916352138419 C9.255514897425172,2.6033263521384242 8.272324897425165,1.1388963521383175 6.71551489742518,0.9292663521383702 C5.302674897425163,0.7130063521383363 3.800844897425179,1.202446352138395 2.792564897425166,2.224326352138405 C2.5274048974251855,2.493066352138385 2.011154897425172,3.2374263521384137 2.0963448974251833,4.0908663521383914 C2.698364897425165,3.6180763521383597 2.657274897425168,3.6707163521383563 3.1509948974251643,3.4505663521383667 C4.287724897425164,2.943706352138406 5.795484897425183,3.664446352138384 6.0789948974251615,4.916116352138374 C6.381084897425183,6.066346352138339 6.147504897425165,7.529776352138356 5.012354897425183,8.142996352138425 C3.8271148974251616,8.787526352138343 2.0781148974251664,8.520776352138341 1.4164948974251672,7.252056352138425 C0.3211548974251741,5.2975763521383215 0.9234648974251627,2.6253263521383587 2.694014897425177,1.2691063521383512 C4.497134897425184,-0.22736364786157992 7.128084897425168,-0.2857136478615985 9.251624897425188,0.4820163521383165 C11.436184897425164,1.2945063521383418 12.738284897425189,3.5582263521383766 12.948904897425166,5.800336352138402 C13.006184897425186,6.268316352138413 13.030954897425175,6.740076352138317 13.030994897425188,7.211376352138359 z" style="" id="path2893" fill="#d3ba00" fill-opacity="1"/>
    </g>
  </g></g></svg>